HIERARCHY
ROOT Hips
{
	OFFSET 0.000000 0.000000 0.000000
	CHANNELS 6 Xposition Yposition Zposition Xrotation Yrotation Zrotation
	JOINT Spine
	{
		OFFSET 0.000000 0.049001 0.073502
		CHANNELS 3 Xrotation Yrotation Zrotation
		JOINT Spine1
		{
			OFFSET 0.000000 0.017018 0.096514
			CHANNELS 3 Xrotation Yrotation Zrotation
			JOINT Spine2
			{
				OFFSET 0.000000 0.008542 0.097630
				CHANNELS 3 Xrotation Yrotation Zrotation
				JOINT Spine3
				{
					OFFSET 0.000000 0.000000 0.098003
					CHANNELS 3 Xrotation Yrotation Zrotation
					JOINT Neck
					{
						OFFSET 0.000000 -0.036751 0.257258
						CHANNELS 3 Xrotation Yrotation Zrotation
						JOINT Head
						{
							OFFSET 0.000000 -0.023400 0.132707
							CHANNELS 3 Xrotation Yrotation Zrotation
							End Site
							{
								OFFSET 0.000000 0.000000 0.000000
							}
						}
					}
					JOINT RightShoulder
					{
						OFFSET -0.030410 -0.050683 0.164214
						CHANNELS 3 Xrotation Yrotation Zrotation
						JOINT RightArm
						{
							OFFSET -0.151036 0.000000 0.000000
							CHANNELS 3 Xrotation Yrotation Zrotation
							JOINT RightForeArm
							{
								OFFSET -0.279942 0.000000 0.000000
								CHANNELS 3 Xrotation Yrotation Zrotation
								JOINT RightHand
								{
									OFFSET -0.265034 0.000000 0.000000
									CHANNELS 3 Xrotation Yrotation Zrotation
									JOINT RightHandEnd
									{
										OFFSET -0.071866 0.000000 0.000000
										CHANNELS 3 Xrotation Yrotation Zrotation
										End Site
										{
											OFFSET 0.000000 0.000000 0.000000
										}
									}
									JOINT RightHandThumb1
									{
										OFFSET -0.028746 -0.047911 -0.019164
										CHANNELS 3 Xrotation Yrotation Zrotation
										End Site
										{
											OFFSET 0.000000 0.000000 0.000000
										}
									}
								}
							}
						}
					}
					JOINT LeftShoulder
					{
						OFFSET 0.030410 -0.050683 0.164214
						CHANNELS 3 Xrotation Yrotation Zrotation
						JOINT LeftArm
						{
							OFFSET 0.151036 0.000000 0.000000
							CHANNELS 3 Xrotation Yrotation Zrotation
							JOINT LeftForeArm
							{
								OFFSET 0.279942 0.000000 0.000000
								CHANNELS 3 Xrotation Yrotation Zrotation
								JOINT LeftHand
								{
									OFFSET 0.265034 0.000000 0.000000
									CHANNELS 3 Xrotation Yrotation Zrotation
									JOINT LeftHandEnd
									{
										OFFSET 0.071866 0.000000 0.000000
										CHANNELS 3 Xrotation Yrotation Zrotation
										End Site
										{
											OFFSET 0.000000 0.000000 0.000000
										}
									}
									JOINT LeftHandThumb1
									{
										OFFSET 0.028746 -0.047911 -0.019164
										CHANNELS 3 Xrotation Yrotation Zrotation
										End Site
										{
											OFFSET 0.000000 0.000000 0.000000
										}
									}
								}
							}
						}
					}
				}
			}
		}
	}
	JOINT RightUpLeg
	{
		OFFSET -0.090216 0.000000 -0.026355
		CHANNELS 3 Xrotation Yrotation Zrotation
		JOINT RightLeg
		{
			OFFSET 0.000000 0.000000 -0.402871
			CHANNELS 3 Xrotation Yrotation Zrotation
			JOINT RightFoot
			{
				OFFSET 0.000000 0.000000 -0.414145
				CHANNELS 3 Xrotation Yrotation Zrotation
				JOINT RightToeBase
				{
					OFFSET 0.000000 -0.146359 -0.053270
					CHANNELS 3 Xrotation Yrotation Zrotation
					End Site
					{
						OFFSET 0.000000 0.000000 0.000000
					}
				}
			}
		}
	}
	JOINT LeftUpLeg
	{
		OFFSET 0.090216 0.000000 -0.026355
		CHANNELS 3 Xrotation Yrotation Zrotation
		JOINT LeftLeg
		{
			OFFSET 0.000000 0.000000 -0.402871
			CHANNELS 3 Xrotation Yrotation Zrotation
			JOINT LeftFoot
			{
				OFFSET 0.000000 0.000000 -0.414145
				CHANNELS 3 Xrotation Yrotation Zrotation
				JOINT LeftToeBase
				{
					OFFSET 0.000000 -0.146359 -0.053270
					CHANNELS 3 Xrotation Yrotation Zrotation
					End Site
					{
						OFFSET 0.000000 0.000000 0.000000
					}
				}
			}
		}
	}
}
MOTION
Frames: 7
Frame Time: 0.033333
-0.770936 -0.590987 0.889729 4.479500 -1.499900 87.495200 3.845000 -2.528900 0.019800 0.724000 -1.430500 -0.312300 8.224400 4.925100 -1.204700 2.896300 3.168600 -4.694600 1.375800 6.751200 3.105000 0.887700 -1.616400 -2.046200 11.312500 6.709900 15.071200 1.418300 -43.670400 12.855200 0.000000 0.000100 93.893000 -41.012500 35.711200 23.232600 0.000000 0.000000 0.000000 0.000000 0.000000 0.000000 11.530200 8.515000 -5.998900 31.048500 41.061800 -50.343800 -0.000100 -0.000100 -102.913100 -20.019400 -53.530900 -15.854300 0.000000 0.000000 0.000000 0.000000 0.000000 0.000000 -15.513200 5.830200 -16.335800 30.757200 0.000000 0.000000 -13.752400 5.979800 -17.415000 1.018300 0.000000 0.000000 -12.563400 5.958800 25.149300 26.038300 0.000000 0.000000 -9.155000 -3.591800 4.266700 -6.012100 0.000000 0.000000 
-0.774598 -0.587924 0.892129 3.023900 -1.661600 87.812300 4.201700 -3.909600 0.091100 0.935000 -1.854100 -0.422500 8.139900 4.627500 -1.644300 2.778200 3.154900 -4.838400 0.908800 7.512400 4.255200 0.997400 -1.092400 -0.432700 11.050900 7.720200 15.067200 -1.564100 -39.682800 9.231800 0.000000 0.000100 90.995800 -41.413300 34.116000 21.757900 0.000000 0.000000 0.000000 0.000000 0.000000 0.000000 11.915100 9.761100 -6.234100 35.495600 41.708800 -56.160000 -0.000100 -0.000100 -96.930300 -25.469600 -55.776500 -20.508700 0.000000 0.000000 0.000000 0.000000 0.000000 0.000000 -14.064200 4.960800 -19.346000 28.385000 0.000000 0.000000 -12.681700 4.872200 -15.009800 0.730400 0.000000 0.000000 -13.829600 3.711800 26.200700 28.830100 0.000000 0.000000 -8.726400 -2.529200 3.423500 -6.988300 0.000000 0.000000 
-0.779089 -0.588190 0.893895 1.815800 -1.770700 87.716800 4.668100 -4.432600 0.108800 1.220300 -1.875500 -0.445600 7.804800 4.036400 -1.818700 2.621000 2.787800 -4.517200 0.733100 7.153300 5.205400 0.902900 -0.158500 1.655800 11.045300 8.065900 14.854000 -3.830100 -36.196200 7.131100 0.000000 0.000100 87.025400 -41.605600 32.385500 20.899700 0.000000 0.000000 0.000000 0.000000 0.000000 0.000000 12.357800 9.444300 -6.303100 39.237300 42.779700 -61.364800 -0.000100 -0.000100 -91.028000 -30.865900 -57.026100 -24.766700 0.000000 0.000000 0.000000 0.000000 0.000000 0.000000 -12.986100 3.871800 -21.885100 26.234100 0.000000 0.000000 -11.367500 4.719600 -12.805400 0.821800 0.000000 0.000000 -16.090700 0.310500 28.913200 33.802400 0.000000 0.000000 -7.190900 -0.126700 1.037200 -8.113500 0.000000 0.000000 
-0.783867 -0.591452 0.894382 0.779700 -1.735700 87.856500 5.008500 -4.416500 0.122500 1.411800 -1.565900 -0.432600 7.422900 3.341200 -2.000200 2.523400 2.248000 -3.960400 0.894300 5.660300 5.674700 0.798400 0.867800 3.951600 11.098300 7.474200 14.401100 -5.367500 -33.595100 6.272500 0.000000 0.000100 82.672900 -40.890300 30.575500 20.721200 0.000000 0.000000 0.000000 0.000000 0.000000 0.000000 12.708800 7.776000 -6.606800 41.441400 43.486700 -64.359700 -0.000100 -0.000100 -86.740400 -34.949700 -57.559800 -27.424800 0.000000 0.000000 0.000000 0.000000 0.000000 0.000000 -12.029200 2.462400 -23.775300 23.874700 0.000000 0.000000 -10.617900 5.380500 -11.566000 1.474400 0.000000 0.000000 -19.324500 -4.298900 31.376300 40.688800 0.000000 0.000000 -3.828500 6.310500 -1.839800 -8.461100 0.000000 0.000000 
-0.787794 -0.596428 0.893907 -0.458500 -1.772000 88.355700 5.275400 -4.399000 0.191000 1.501300 -1.147000 -0.403100 7.127400 2.533100 -2.253500 2.499700 1.647100 -3.288700 1.265700 3.677500 5.729500 0.813400 1.835900 6.152400 10.964200 6.132000 13.819200 -6.143900 -32.102500 6.106400 0.000000 0.000100 78.994400 -39.636100 29.296500 21.240300 0.000000 0.000000 0.000000 0.000000 0.000000 0.000000 12.889600 5.757300 -7.325800 41.401900 42.923500 -63.809000 -0.000100 -0.000100 -84.771500 -37.788500 -57.509000 -29.105700 0.000000 0.000000 0.000000 0.000000 0.000000 0.000000 -11.171700 0.669200 -25.048400 21.968700 0.000000 0.000000 -10.125000 5.761900 -10.998500 1.648700 0.000000 0.000000 -22.565500 -9.617700 32.150800 47.559100 0.000000 0.000000 0.081600 15.338700 -3.736500 -8.737300 0.000000 0.000000 
-0.790125 -0.601490 0.893265 -1.667300 -2.008400 88.957600 5.490300 -4.215200 0.244600 1.545000 -0.749800 -0.368400 6.988900 1.611600 -2.380200 2.523100 0.969800 -2.460000 1.756900 1.719800 5.513200 0.831500 2.738100 7.982400 10.705400 4.323600 13.140700 -6.332900 -31.771600 6.199500 0.000000 0.000100 76.889700 -38.699300 29.167900 22.058600 0.000000 0.000000 0.000000 0.000000 0.000000 0.000000 12.990700 3.964500 -8.250400 39.606500 40.880400 -60.313700 -0.000100 -0.000100 -84.646200 -39.621100 -56.751600 -30.650800 0.000000 0.000000 0.000000 0.000000 0.000000 0.000000 -10.373500 -0.971000 -26.172700 20.776000 0.000000 0.000000 -9.608300 5.887900 -10.384500 1.367300 0.000000 0.000000 -24.898500 -14.474000 31.467400 52.670400 0.000000 0.000000 1.306200 21.118600 -3.613900 -10.638100 0.000000 0.000000 
-0.790953 -0.605798 0.892924 -2.494100 -2.329700 89.383600 5.559000 -3.599300 0.212500 1.539800 -0.326400 -0.296600 7.026200 0.645200 -2.162300 2.588300 0.211500 -1.411700 2.360700 -0.126400 4.989600 0.692100 3.499800 9.183100 10.656300 2.284300 12.309500 -6.345400 -32.709300 6.327900 0.000000 0.000100 76.561900 -38.586400 30.198200 22.994200 0.000000 0.000000 0.000000 0.000000 0.000000 0.000000 13.003000 2.211200 -9.068800 37.376300 37.866700 -55.691500 -0.000100 -0.000100 -85.485000 -40.616700 -55.451900 -31.912200 0.000000 0.000000 0.000000 0.000000 0.000000 0.000000 -9.511200 -2.110800 -27.431200 19.765500 0.000000 0.000000 -9.256300 6.190800 -9.421300 1.270400 0.000000 0.000000 -26.087500 -18.251700 30.016700 55.553300 0.000000 0.000000 -0.930400 20.711600 -1.104600 -13.267700 0.000000 0.000000 
